<!DOCTYPE svg PUBLIC "-//W3C//DTD SVG 1.1//EN" "http://www.w3.org/Graphics/SVG/1.1/DTD/svg11.dtd" [
	<!ENTITY st0 "fill:#FFFFFF;">
]><svg xmlns="http://www.w3.org/2000/svg" viewBox="0 0 401 158"><path d="M401 158l-208.3-11c.7-1.8 1.1-3.7 1.1-5.8 0-8.4-6.8-15.2-15.2-15.2-1.9 0-3.7.4-5.4 1v1.5c0 .8-.1 1.6-.2 2.3 0 .4-.1.7-.1 1l-.2.9c-.1.6-.2 1.1-.4 1.6-.1.3-.2.5-.3.7-.1.2-.1.3-.2.4-.2.6-.4 1-.4 1s0-.4.1-1c0-.3.1-.7.1-1.2v-2.4l-.1-.9c-.1-.6-.1-1.3-.3-2-.1-.3-.2-.6-.2-1-.1-.4-.2-.8-.3-1.1 0-.1 0-.1-.1-.2-3.2-8.4-11.3-14.4-20.8-14.4-2.8 0-5.6.5-8 1.5.3.8.6 1.7.8 2.5l.4 1.6.3 1.6c.2 1 .3 2.1.4 3.1.1 1 .1 2 .1 2.9v1.3l-.1 1.2c-.1.8-.1 1.5-.3 2.1-.1.6-.3 1.1-.4 1.6-.2.8-.3 1.3-.3 1.3v-2.8c0-.6-.1-1.2-.2-2l-.1-1.1c-.1-.4-.2-.8-.2-1.2-.2-.8-.3-1.7-.6-2.5-.3-.9-.5-1.8-.9-2.6l-.6-1.3c-.2-.4-.4-.9-.7-1.3-.4-.8-.9-1.6-1.4-2.3-.1-.2-.3-.4-.4-.7l-1.3-1.8c-.6-.7-1.1-1.4-1.7-2l-.7-.8c-5-4.9-11.8-8-19.4-8-14.3 0-26.1 11-27.4 25-.1-.3-.1-.6-.2-1-.1-.5-.2-1.1-.3-1.8l-.1-1v-3.6c.1-.9.1-1.8.3-2.7.1-.5.2-.9.2-1.4l.3-1.4c.1-.5.2-.9.4-1.4-2.2-.7-4.5-1.1-7-1.1-12.3 0-22.2 9.9-22.2 22.2 0 3.7.9 7.1 2.5 10.1l-58 13.6h398zM202.5 65c-1.3 0-2.6.3-3.8.9-1.2.6-2.3 1.4-3.3 2.5s-1.7 2.4-2.3 4c-.6 1.6-.9 3.3-.9 5.2v17.4c0 .7-.4 1.4-1.3 2-.9.6-2 .9-3.3.9-1.3 0-2.4-.3-3.1-.9-.8-.6-1.2-1.3-1.2-2v-34.5c0-.9.4-1.5 1.2-2.1.8-.5 1.8-.8 3.1-.8 1.1 0 2.1.3 2.9.8.8.5 1.2 1.2 1.2 2.1v3.7c.5-.9 1-1.8 1.7-2.6.7-.9 1.5-1.6 2.5-2.3.9-.7 2-1.2 3.1-1.6 1.1-.4 2.3-.6 3.5-.6h2.7c.9 0 1.7.4 2.4 1.1s1 1.7 1 2.8c0 1.1-.3 2.1-1 2.8s-1.5 1.1-2.4 1.1h-2.7zM228.9 57.1c2.3 0 4.6.4 6.7 1.3s4 2.1 5.6 3.6c1.6 1.5 2.9 3.3 3.9 5.4 1 2 1.4 4.2 1.4 6.5v7.8c0 2.2-.5 4.3-1.4 6.4-1 2-2.3 3.8-3.9 5.4-1.6 1.6-3.5 2.8-5.6 3.7s-4.4 1.4-6.7 1.4c-2.4 0-4.6-.5-6.8-1.4-2.1-.9-4-2.2-5.6-3.7-1.6-1.6-2.9-3.4-3.8-5.4-.9-2-1.4-4.2-1.4-6.4v-7.8c0-2.2.5-4.3 1.4-6.4s2.2-3.8 3.8-5.4c1.6-1.5 3.4-2.8 5.6-3.7 2.1-.9 4.4-1.3 6.8-1.3zm8.7 16.7c0-1.1-.2-2.2-.7-3.2-.5-1.1-1.1-2-1.9-2.8-.8-.8-1.7-1.5-2.8-2-1-.5-2.2-.8-3.4-.8s-2.3.3-3.4.8-2 1.2-2.8 2c-.8.8-1.4 1.8-1.8 2.8-.5 1.1-.7 2.2-.7 3.2v7.8c0 1.1.2 2.2.7 3.3.5 1.1 1.1 2 1.8 2.9.8.9 1.7 1.5 2.8 2 1.1.5 2.2.8 3.4.8s2.3-.3 3.4-.8c1-.5 2-1.2 2.8-2 .8-.8 1.4-1.8 1.9-2.9.5-1.1.7-2.2.7-3.3v-7.8zM270.7 98.6c-3.1 0-5.7-.4-8-1.3-2.2-.9-4.1-2-5.5-3.5-1.4-1.5-2.5-3.3-3.2-5.4-.7-2.1-1-4.3-1-6.8v-7.6c0-2.4.3-4.6 1-6.7.7-2.1 1.7-3.9 3.2-5.4 1.4-1.5 3.3-2.7 5.5-3.6 2.2-.9 4.8-1.3 7.9-1.3 1.9 0 3.7.2 5.3.6 1.6.4 3 .8 4.1 1.4 1.2.6 2.1 1.3 2.7 2 .6.7.9 1.5.9 2.2 0 .8-.3 1.8-1 2.8-.7 1-1.5 1.5-2.6 1.5-.5 0-.9-.1-1.4-.4-.5-.3-1-.6-1.7-.9-.7-.3-1.4-.6-2.3-.9-.9-.3-2-.4-3.4-.4-3.2 0-5.6.8-7.1 2.4-1.5 1.6-2.3 3.8-2.3 6.6v7.7c0 2.8.8 5 2.3 6.6 1.5 1.6 3.9 2.4 7.2 2.4 1.4 0 2.6-.1 3.5-.4.9-.3 1.7-.6 2.3-1 .7-.4 1.2-.7 1.7-1 .5-.3.9-.4 1.4-.4 1.2 0 2.1.5 2.8 1.4.7 1 1 1.9 1 2.8 0 .7-.3 1.5-1 2.3-.7.8-1.6 1.5-2.8 2.1-1.2.6-2.6 1.1-4.3 1.5-1.5.5-3.3.7-5.2.7zM311.9 73.1l13.4 19.2c.3.5.5 1 .5 1.5s-.2 1-.5 1.6c-.3.5-.7 1-1.2 1.4s-1.1.8-1.7 1.1-1.1.4-1.7.4c-1 0-1.8-.4-2.4-1.3l-12.5-18.5-6.2 5.6v10.6c0 .7-.4 1.4-1.3 2-.9.6-2 .9-3.3.9-1.3 0-2.4-.3-3.1-.9-.8-.6-1.2-1.3-1.2-2v-58.2c0-.8.4-1.5 1.2-2.1.8-.5 1.8-.8 3.1-.8s2.4.3 3.3.8c.9.5 1.3 1.2 1.3 2.1v37.9l17.8-16.4c.5-.5 1.1-.8 1.9-.8.5 0 1 .1 1.5.4.5.3 1 .6 1.4 1 .4.4.8.9 1 1.4.3.5.4 1 .4 1.5 0 .7-.3 1.4-.8 1.9l-10.9 9.7zM333.6 92.3c.8 0 1.5.3 2.1.9.6.6.9 1.3.9 2.2 0 .8-.3 1.5-.9 2.1-.6.6-1.3.9-2.1.9-.9 0-1.6-.3-2.2-.9-.6-.6-.9-1.3-.9-2.1 0-.9.3-1.6.9-2.2.6-.6 1.3-.9 2.2-.9zM347.7 39.1c.7 0 1.4.3 1.9.8s.8 1.1.8 1.9c0 .7-.3 1.4-.8 1.9s-1.1.8-1.9.8c-.8 0-1.4-.3-2-.8-.5-.5-.8-1.2-.8-1.9s.3-1.4.8-1.9 1.2-.8 2-.8zm0 18.6c.5 0 .8.1 1.1.4.3.3.4.6.4 1.1v37.2c0 .4-.1.8-.4 1.1-.3.3-.7.5-1.1.5-.4 0-.7-.2-1-.5-.3-.3-.4-.7-.4-1.1v-37.2c0-.5.1-.8.4-1.1.2-.2.6-.4 1-.4zM360.6 39.5c0-.5.2-.8.5-1.1.3-.3.6-.4 1-.4s.8.1 1.1.4c.3.3.5.6.5 1.1v18.2h11.5c.4 0 .7.1 1 .4.3.3.4.7.4 1.1 0 .4-.1.7-.4 1-.3.3-.6.4-1 .4h-11.5v25.3c0 3.2.7 5.5 2.1 6.8 1.4 1.3 3.8 2 7.4 2h2c.4 0 .7.1 1 .4.3.3.4.6.4 1.1 0 .5-.1.8-.4 1.1-.3.3-.6.4-1 .4h-2c-4.1 0-7.2-.9-9.3-2.8-2.1-1.9-3.1-4.9-3.1-9v-46.4zM142.4 74.9c-.1-.7-.2-1.4-.4-2.2l-.3-1.1c-.1-.4-.3-.8-.4-1.1-.3-.7-.7-1.5-1.1-2.2l-1.3-2.1c-1.9-2.7-4.2-4.9-6.1-6.4-.9-.8-1.7-1.3-2.3-1.8-.3-.2-.5-.4-.7-.5-.1-.1-.1-.1-.2-.1.3-.8.7-1.6 1-2.5.4-1 .7-2 1-3.1.3-1.1.6-2.1.9-3.3.5-2.2.9-4.6 1.1-7 .2-2.4.3-4.9.1-7.4-.1-2.5-.4-5-1-7.4-.5-2.4-1.2-4.8-2.1-7-.8-2.2-1.9-4.2-3-6.1-1.2-1.8-2.4-3.4-3.6-4.8-1.3-1.4-2.5-2.5-3.7-3.5-1.2-.9-2.3-1.7-3.2-2.2-.9-.5-1.7-.9-2.2-1.1-.5-.2-.8-.3-.8-.3s.8.9 1.9 2.6c.6.8 1.2 1.9 1.9 3.1.7 1.2 1.4 2.6 2.1 4.1.3.8.7 1.5 1 2.4.3.8.6 1.7.9 2.6.3.9.6 1.8.8 2.7.1.5.2.9.4 1.4l.3 1.5.3 1.5.3 1.5c.1 1 .3 2 .4 3.1 0 .5.1 1 .2 1.6 0 .5 0 1.1.1 1.6.1 1.1.1 2.1.1 3.2v3.2l-.2 3.2-.6 6.3c-.1 1-.2 2-.4 3-.1 1-.2 2-.4 2.9-.1 1-.2 1.9-.3 2.8-.1.9-.3 1.8-.4 2.6-.1.9-.2 1.7-.3 2.5-.1.8-.2 1.5-.3 2.2-.1 1.4-.3 2.7-.4 3.7-.1 1 .2 2.7.2 3h-12.4c.1-.5-.6-1.4-1.1-2.6-.4-.9-.9-2.1-1.3-3.4-.5-1.3-1.1-2.8-1.6-4.5-.3-.8-.6-1.7-.9-2.6-.3-.9-.5-1.8-.8-2.8-.3-.9-.5-1.9-.8-3-.3-1-.6-2-.8-3.1-.5-2.1-.8-4.3-1.1-6.6-.3-2.2-.4-4.5-.5-6.8v-1.7l.1-1.7c0-.6 0-1.1.1-1.7l.2-1.7c0-.6.1-1.1.2-1.7l.3-1.6c.3-1.1.4-2.1.8-3.2.6-2.1 1.3-4 2.1-5.8.8-1.8 1.7-3.4 2.6-4.9 1.8-2.9 3.7-5.1 5.2-6.6 1.4-1.5 2.4-2.2 2.4-2.2s-.3.1-.7.4c-.5.3-1.2.7-2 1.4-.8.6-1.8 1.4-2.8 2.5-1 1-2.2 2.2-3.2 3.7-1.1 1.4-2.2 3.1-3.1 4.9-.9 1.8-1.9 3.8-2.5 6-.4 1.1-.6 2.2-.9 3.3-.1.6-.2 1.1-.4 1.7-.1.6-.2 1.2-.3 1.7l-.2 1.8c-.1.6-.1 1.2-.1 1.8l-.1 1.8v1.8c0 2.4.2 4.8.5 7.1.1 1.2.4 2.3.6 3.5.2 1.1.5 2.2.8 3.3.2 1.1.6 2.1.9 3.2.3 1 .6 2 1 3s.7 1.9 1 2.8v.1s-.1.1-.2.1c-.2.1-.4.3-.7.5-.6.4-1.4 1-2.3 1.8-1.8 1.5-4.1 3.7-6.1 6.4-.5.7-.9 1.4-1.3 2.1-.4.7-.8 1.5-1.1 2.2-.1.4-.3.8-.4 1.1-.1.4-.2.8-.3 1.1-.2.7-.3 1.5-.4 2.2 0 .3 0 .7-.1 1v2.4c0 .2 0 .5.1.9s.1.8.2 1.3.2 1 .4 1.6l.5 1.8c.2.6.5 1.3.7 2l.9 2 1 2c.4.6.7 1.3 1.2 1.9l1.2 1.8.7.8c.3.2.5.5.7.7.5.4 1 .8 1.6 1.1.5.3 1.1.6 1.5.8.5.2 1 .4 1.4.5.4.1.7.2 1 .2.2 0 .4.1.4.1v-.4c0-.2.1-.6.1-1v-1.4c0-.5-.1-1.1-.2-1.7-.1-.6-.3-1.2-.5-1.9-.1-.3-.2-.6-.3-1-.1-.3-.3-.6-.4-1l-1-1.9c-.4-.7-.8-1.3-1.1-1.9l-1.2-1.9-.1-.1c-.1-.4-.1-.8-.1-1.2 0-.9.4-2 .9-3 .6-1 1.3-2 2.1-3 1.7-1.9 3.7-3.4 5.2-4.5 1.3-.9 2.3-1.5 2.4-1.9l6.3 24.8 6.3-24.8.1.1s1 .6 2.4 1.5c1.7 1 3.8 2.5 5.7 4.3.9.9 1.8 1.9 2.4 2.8.3.5.6 1 .8 1.5.2.5.3.9.4 1.4.1.4.1.8 0 1.2 0 .3-.1.6-.2.8l-1.2 1.8c-.4.6-.8 1.3-1.1 1.9-.4.6-.7 1.3-1 1.9l-.4 1c-.1.3-.2.6-.3 1-.2.6-.4 1.3-.5 1.9-.1.6-.2 1.2-.2 1.7s-.1 1 0 1.4c0 .4 0 .7.1 1v.4s.2 0 .4-.1c.3 0 .6-.1 1-.2s.9-.3 1.4-.5c.5-.2 1-.5 1.5-.8.5-.3 1-.7 1.6-1.1.3-.2.5-.5.7-.7l.7-.8 1.2-1.8 1.2-1.9c.4-.7.7-1.3 1-2l.9-2c.3-.7.5-1.3.7-2 .2-.6.4-1.2.5-1.8.2-.6.3-1.1.4-1.6.1-.5.2-.9.2-1.3s.1-.7.1-.9v-3.4zm-36.1-3.4c-1.6 1.1-3.6 2.7-5.3 4.6-.9 1-1.7 2-2.2 3.1-.6 1.1-1 2.3-1 3.3v.1l-.3-.5c-.4-.6-.8-1.1-1.3-1.6-.4-.5-.8-1-1.2-1.4-.2-.2-.7-.9-.7-1.5 0-.3-.1-.6 0-1v-.6c0-.2.1-.4.1-.7.1-.5.2-1 .4-1.5l.6-1.6.9-1.6c.3-.5.8-1.1 1.2-1.6 1.7-2.1 3.8-3.9 5.5-5.2.8-.6 1.6-1.1 2.1-1.4.3.7.7 1.3 1 1.9l.9 1.8.9 1.5c.6.9 1.3 1.9 1.3 2.1s-1.5.8-2.9 1.8zm31.9 6.2c-.1.5-.5 1.2-.7 1.5-.4.4-.8.9-1.2 1.4-.4.5-.8 1-1.3 1.6-.1.2-.2.3-.4.5 0-.3 0-.6-.1-.9-.1-.5-.2-1-.5-1.6-.2-.5-.5-1.1-.9-1.6-.7-1-1.6-2-2.6-3-2-1.8-4.2-3.3-5.9-4.4-1.2-.7-2.2-1.3-2.6-1.5.4-.4.9-1.1 1.6-1.9.3-.4.7-.9 1.1-1.4.4-.5.8-1.1 1.1-1.7.5-.7 1-1.5 1.4-2.4l.2.1c.5.3 1.2.8 2.1 1.4 1.7 1.2 3.8 3 5.5 5.2l1.2 1.6c.4.5.7 1.1.9 1.6.3.5.5 1.1.6 1.6.2.5.3 1 .4 1.5l.1.7v1.7000000000000002z" fill="#fff"/></svg>