<?xml version="1.0" encoding="utf-8"?>
<!DOCTYPE svg PUBLIC "-//W3C//DTD SVG 1.1//EN" "http://www.w3.org/Graphics/SVG/1.1/DTD/svg11.dtd" [
	<!ENTITY st0 "fill:#FFFFFF;">
]>
<svg xmlns="http://www.w3.org/2000/svg" viewBox="0 0 401 158">
<path style="fill:#53d189;" d="M401,158l-208.3-11c0.7-1.8,1.1-3.7,1.1-5.8c0-8.4-6.8-15.2-15.2-15.2c-1.9,0-3.7,0.4-5.4,1c0,0.5,0,1,0,1.5
	c0,0.8-0.1,1.6-0.2,2.3c0,0.4-0.1,0.7-0.1,1c-0.1,0.3-0.1,0.6-0.2,0.9c-0.1,0.6-0.2,1.1-0.4,1.6c-0.1,0.3-0.2,0.5-0.3,0.7v0
	c-0.1,0.2-0.1,0.3-0.2,0.4c-0.2,0.6-0.4,1-0.4,1s0-0.4,0.1-1c0-0.3,0.1-0.7,0.1-1.2c0-0.5,0-1,0-1.5c0-0.3,0-0.6,0-0.9
	c0-0.3-0.1-0.6-0.1-0.9c-0.1-0.6-0.1-1.3-0.3-2c-0.1-0.3-0.2-0.6-0.2-1c-0.1-0.4-0.2-0.8-0.3-1.1c0-0.1,0-0.1-0.1-0.2
	c-3.2-8.4-11.3-14.4-20.8-14.4c-2.8,0-5.6,0.5-8,1.5c0.3,0.8,0.6,1.7,0.8,2.5c0.1,0.5,0.3,1.1,0.4,1.6c0.1,0.5,0.2,1.1,0.3,1.6
	c0.2,1,0.3,2.1,0.4,3.1c0.1,1,0.1,2,0.1,2.9c0,0.5,0,0.9,0,1.3c0,0.4-0.1,0.8-0.1,1.2c-0.1,0.8-0.1,1.5-0.3,2.1
	c-0.1,0.6-0.3,1.1-0.4,1.6c-0.2,0.8-0.3,1.3-0.3,1.3s0-0.5,0-1.3c0-0.4,0-0.9,0-1.5c0-0.6-0.1-1.2-0.2-2c0-0.4-0.1-0.7-0.1-1.1
	c-0.1-0.4-0.2-0.8-0.2-1.2c-0.2-0.8-0.3-1.7-0.6-2.5c-0.3-0.9-0.5-1.8-0.9-2.6c-0.2-0.4-0.4-0.9-0.6-1.3c-0.2-0.4-0.4-0.9-0.7-1.3
	c-0.4-0.8-0.9-1.6-1.4-2.3c0,0,0,0,0,0c-0.1-0.2-0.3-0.4-0.4-0.7c-0.4-0.6-0.9-1.2-1.3-1.8c-0.6-0.7-1.1-1.4-1.7-2
	c-0.2-0.3-0.5-0.5-0.7-0.8c-5-4.9-11.8-8-19.4-8c-14.3,0-26.1,11-27.4,25c-0.1-0.3-0.1-0.6-0.2-1c-0.1-0.5-0.2-1.1-0.3-1.8
	c0-0.3-0.1-0.7-0.1-1c0-0.4,0-0.7,0-1.1c0-0.8,0-1.6,0-2.5c0.1-0.9,0.1-1.8,0.3-2.7c0.1-0.5,0.2-0.9,0.2-1.4l0.3-1.4
	c0.1-0.5,0.2-0.9,0.4-1.4c-2.2-0.7-4.5-1.1-7-1.1c-12.3,0-22.2,9.9-22.2,22.2c0,3.7,0.9,7.1,2.5,10.1L3,158H401z"/>
<path style="fill:#53d189;" d="M202.5,65c-1.3,0-2.6,0.3-3.8,0.9c-1.2,0.6-2.3,1.4-3.3,2.5c-1,1.1-1.7,2.4-2.3,4c-0.6,1.6-0.9,3.3-0.9,5.2
	v17.4c0,0.7-0.4,1.4-1.3,2c-0.9,0.6-2,0.9-3.3,0.9c-1.3,0-2.4-0.3-3.1-0.9c-0.8-0.6-1.2-1.3-1.2-2V60.5c0-0.9,0.4-1.5,1.2-2.1
	c0.8-0.5,1.8-0.8,3.1-0.8c1.1,0,2.1,0.3,2.9,0.8c0.8,0.5,1.2,1.2,1.2,2.1v3.7c0.5-0.9,1-1.8,1.7-2.6c0.7-0.9,1.5-1.6,2.5-2.3
	c0.9-0.7,2-1.2,3.1-1.6c1.1-0.4,2.3-0.6,3.5-0.6h2.7c0.9,0,1.7,0.4,2.4,1.1s1,1.7,1,2.8c0,1.1-0.3,2.1-1,2.8s-1.5,1.1-2.4,1.1H202.5
	z"/>
<path style="fill:#53d189;" d="M228.9,57.1c2.3,0,4.6,0.4,6.7,1.3s4,2.1,5.6,3.6c1.6,1.5,2.9,3.3,3.9,5.4c1,2,1.4,4.2,1.4,6.5v7.8
	c0,2.2-0.5,4.3-1.4,6.4c-1,2-2.3,3.8-3.9,5.4c-1.6,1.6-3.5,2.8-5.6,3.7s-4.4,1.4-6.7,1.4c-2.4,0-4.6-0.5-6.8-1.4
	c-2.1-0.9-4-2.2-5.6-3.7c-1.6-1.6-2.9-3.4-3.8-5.4c-0.9-2-1.4-4.2-1.4-6.4v-7.8c0-2.2,0.5-4.3,1.4-6.4s2.2-3.8,3.8-5.4
	c1.6-1.5,3.4-2.8,5.6-3.7C224.2,57.5,226.5,57.1,228.9,57.1z M237.6,73.8c0-1.1-0.2-2.2-0.7-3.2c-0.5-1.1-1.1-2-1.9-2.8
	c-0.8-0.8-1.7-1.5-2.8-2c-1-0.5-2.2-0.8-3.4-0.8s-2.3,0.3-3.4,0.8c-1.1,0.5-2,1.2-2.8,2c-0.8,0.8-1.4,1.8-1.8,2.8
	c-0.5,1.1-0.7,2.2-0.7,3.2v7.8c0,1.1,0.2,2.2,0.7,3.3c0.5,1.1,1.1,2,1.8,2.9c0.8,0.9,1.7,1.5,2.8,2c1.1,0.5,2.2,0.8,3.4,0.8
	s2.3-0.3,3.4-0.8c1-0.5,2-1.2,2.8-2c0.8-0.8,1.4-1.8,1.9-2.9c0.5-1.1,0.7-2.2,0.7-3.3V73.8z"/>
<path style="fill:#53d189;" d="M270.7,98.6c-3.1,0-5.7-0.4-8-1.3c-2.2-0.9-4.1-2-5.5-3.5c-1.4-1.5-2.5-3.3-3.2-5.4c-0.7-2.1-1-4.3-1-6.8V74
	c0-2.4,0.3-4.6,1-6.7c0.7-2.1,1.7-3.9,3.2-5.4c1.4-1.5,3.3-2.7,5.5-3.6c2.2-0.9,4.8-1.3,7.9-1.3c1.9,0,3.7,0.2,5.3,0.6
	c1.6,0.4,3,0.8,4.1,1.4c1.2,0.6,2.1,1.3,2.7,2c0.6,0.7,0.9,1.5,0.9,2.2c0,0.8-0.3,1.8-1,2.8c-0.7,1-1.5,1.5-2.6,1.5
	c-0.5,0-0.9-0.1-1.4-0.4c-0.5-0.3-1-0.6-1.7-0.9c-0.7-0.3-1.4-0.6-2.3-0.9c-0.9-0.3-2-0.4-3.4-0.4c-3.2,0-5.6,0.8-7.1,2.4
	c-1.5,1.6-2.3,3.8-2.3,6.6v7.7c0,2.8,0.8,5,2.3,6.6c1.5,1.6,3.9,2.4,7.2,2.4c1.4,0,2.6-0.1,3.5-0.4c0.9-0.3,1.7-0.6,2.3-1
	c0.7-0.4,1.2-0.7,1.7-1c0.5-0.3,0.9-0.4,1.4-0.4c1.2,0,2.1,0.5,2.8,1.4c0.7,1,1,1.9,1,2.8c0,0.7-0.3,1.5-1,2.3
	c-0.7,0.8-1.6,1.5-2.8,2.1c-1.2,0.6-2.6,1.1-4.3,1.5C274.4,98.4,272.6,98.6,270.7,98.6z"/>
<path style="fill:#53d189;" d="M311.9,73.1l13.4,19.2c0.3,0.5,0.5,1,0.5,1.5c0,0.5-0.2,1-0.5,1.6c-0.3,0.5-0.7,1-1.2,1.4s-1.1,0.8-1.7,1.1
	s-1.1,0.4-1.7,0.4c-1,0-1.8-0.4-2.4-1.3l-12.5-18.5l-6.2,5.6v10.6c0,0.7-0.4,1.4-1.3,2c-0.9,0.6-2,0.9-3.3,0.9
	c-1.3,0-2.4-0.3-3.1-0.9c-0.8-0.6-1.2-1.3-1.2-2V36.5c0-0.8,0.4-1.5,1.2-2.1c0.8-0.5,1.8-0.8,3.1-0.8c1.3,0,2.4,0.3,3.3,0.8
	c0.9,0.5,1.3,1.2,1.3,2.1v37.9L317.4,58c0.5-0.5,1.1-0.8,1.9-0.8c0.5,0,1,0.1,1.5,0.4c0.5,0.3,1,0.6,1.4,1c0.4,0.4,0.8,0.9,1,1.4
	c0.3,0.5,0.4,1,0.4,1.5c0,0.7-0.3,1.4-0.8,1.9L311.9,73.1z"/>
<path style="fill:#53d189;" d="M333.6,92.3c0.8,0,1.5,0.3,2.1,0.9c0.6,0.6,0.9,1.3,0.9,2.2c0,0.8-0.3,1.5-0.9,2.1c-0.6,0.6-1.3,0.9-2.1,0.9
	c-0.9,0-1.6-0.3-2.2-0.9c-0.6-0.6-0.9-1.3-0.9-2.1c0-0.9,0.3-1.6,0.9-2.2C332,92.6,332.7,92.3,333.6,92.3z"/>
<path style="fill:#53d189;" d="M347.7,39.1c0.7,0,1.4,0.3,1.9,0.8c0.5,0.5,0.8,1.1,0.8,1.9c0,0.7-0.3,1.4-0.8,1.9c-0.5,0.5-1.1,0.8-1.9,0.8
	c-0.8,0-1.4-0.3-2-0.8c-0.5-0.5-0.8-1.2-0.8-1.9c0-0.7,0.3-1.4,0.8-1.9C346.2,39.4,346.9,39.1,347.7,39.1z M347.7,57.7
	c0.5,0,0.8,0.1,1.1,0.4c0.3,0.3,0.4,0.6,0.4,1.1v37.2c0,0.4-0.1,0.8-0.4,1.1c-0.3,0.3-0.7,0.5-1.1,0.5c-0.4,0-0.7-0.2-1-0.5
	c-0.3-0.3-0.4-0.7-0.4-1.1V59.2c0-0.5,0.1-0.8,0.4-1.1C346.9,57.9,347.3,57.7,347.7,57.7z"/>
<path style="fill:#53d189;" d="M360.6,39.5c0-0.5,0.2-0.8,0.5-1.1c0.3-0.3,0.6-0.4,1-0.4c0.4,0,0.8,0.1,1.1,0.4c0.3,0.3,0.5,0.6,0.5,1.1
	v18.2h11.5c0.4,0,0.7,0.1,1,0.4c0.3,0.3,0.4,0.7,0.4,1.1c0,0.4-0.1,0.7-0.4,1c-0.3,0.3-0.6,0.4-1,0.4h-11.5v25.3
	c0,3.2,0.7,5.5,2.1,6.8c1.4,1.3,3.8,2,7.4,2h2c0.4,0,0.7,0.1,1,0.4c0.3,0.3,0.4,0.6,0.4,1.1c0,0.5-0.1,0.8-0.4,1.1
	c-0.3,0.3-0.6,0.4-1,0.4h-2c-4.1,0-7.2-0.9-9.3-2.8c-2.1-1.9-3.1-4.9-3.1-9V39.5z"/>
<path style="fill:#53d189;" d="M142.4,74.9c-0.1-0.7-0.2-1.4-0.4-2.2c-0.1-0.4-0.2-0.7-0.3-1.1c-0.1-0.4-0.3-0.8-0.4-1.1
	c-0.3-0.7-0.7-1.5-1.1-2.2c-0.4-0.7-0.9-1.4-1.3-2.1c-1.9-2.7-4.2-4.9-6.1-6.4c-0.9-0.8-1.7-1.3-2.3-1.8c-0.3-0.2-0.5-0.4-0.7-0.5
	c-0.1-0.1-0.1-0.1-0.2-0.1c0.3-0.8,0.7-1.6,1-2.5c0.4-1,0.7-2,1-3.1c0.3-1.1,0.6-2.1,0.9-3.3c0.5-2.2,0.9-4.6,1.1-7
	c0.2-2.4,0.3-4.9,0.1-7.4c-0.1-2.5-0.4-5-1-7.4c-0.5-2.4-1.2-4.8-2.1-7c-0.8-2.2-1.9-4.2-3-6.1c-1.2-1.8-2.4-3.4-3.6-4.8
	c-1.3-1.4-2.5-2.5-3.7-3.5c-1.2-0.9-2.3-1.7-3.2-2.2c-0.9-0.5-1.7-0.9-2.2-1.1c-0.5-0.2-0.8-0.3-0.8-0.3c0,0,0.8,0.9,1.9,2.6
	c0.6,0.8,1.2,1.9,1.9,3.1c0.7,1.2,1.4,2.6,2.1,4.1c0.3,0.8,0.7,1.5,1,2.4c0.3,0.8,0.6,1.7,0.9,2.6c0.3,0.9,0.6,1.8,0.8,2.7
	c0.1,0.5,0.2,0.9,0.4,1.4c0.1,0.5,0.2,1,0.3,1.5c0.1,0.5,0.2,1,0.3,1.5c0.1,0.5,0.2,1,0.3,1.5c0.1,1,0.3,2,0.4,3.1
	c0,0.5,0.1,1,0.2,1.6c0,0.5,0,1.1,0.1,1.6c0.1,1.1,0.1,2.1,0.1,3.2c0,0.5,0,1.1,0,1.6l0,1.6c0,1.1-0.2,2.1-0.2,3.2
	c-0.2,2.1-0.4,4.2-0.6,6.3c-0.1,1-0.2,2-0.4,3c-0.1,1-0.2,2-0.4,2.9c-0.1,1-0.2,1.9-0.3,2.8c-0.1,0.9-0.3,1.8-0.4,2.6
	c-0.1,0.9-0.2,1.7-0.3,2.5c-0.1,0.8-0.2,1.5-0.3,2.2c-0.1,1.4-0.3,2.7-0.4,3.7c-0.1,1,0.2,2.7,0.2,3h-12.4c0.1-0.5-0.6-1.4-1.1-2.6
	c-0.4-0.9-0.9-2.1-1.3-3.4c-0.5-1.3-1.1-2.8-1.6-4.5c-0.3-0.8-0.6-1.7-0.9-2.6c-0.3-0.9-0.5-1.8-0.8-2.8c-0.3-0.9-0.5-1.9-0.8-3
	c-0.3-1-0.6-2-0.8-3.1c-0.5-2.1-0.8-4.3-1.1-6.6c-0.3-2.2-0.4-4.5-0.5-6.8l0-1.7c0-0.6,0.1-1.1,0.1-1.7c0-0.6,0-1.1,0.1-1.7
	c0.1-0.6,0.1-1.1,0.2-1.7c0-0.6,0.1-1.1,0.2-1.7c0.1-0.5,0.2-1.1,0.3-1.6c0.3-1.1,0.4-2.1,0.8-3.2c0.6-2.1,1.3-4,2.1-5.8
	c0.8-1.8,1.7-3.4,2.6-4.9c1.8-2.9,3.7-5.1,5.2-6.6c1.4-1.5,2.4-2.2,2.4-2.2s-0.3,0.1-0.7,0.4c-0.5,0.3-1.2,0.7-2,1.4
	c-0.8,0.6-1.8,1.4-2.8,2.5c-1,1-2.2,2.2-3.2,3.7c-1.1,1.4-2.2,3.1-3.1,4.9c-0.9,1.8-1.9,3.8-2.5,6c-0.4,1.1-0.6,2.2-0.9,3.3
	c-0.1,0.6-0.2,1.1-0.4,1.7c-0.1,0.6-0.2,1.2-0.3,1.7c-0.1,0.6-0.1,1.2-0.2,1.8c-0.1,0.6-0.1,1.2-0.1,1.8c0,0.6-0.1,1.2-0.1,1.8
	l0,1.8c0,2.4,0.2,4.8,0.5,7.1c0.1,1.2,0.4,2.3,0.6,3.5c0.2,1.1,0.5,2.2,0.8,3.3c0.2,1.1,0.6,2.1,0.9,3.2c0.3,1,0.6,2,1,3
	c0.4,1,0.7,1.9,1,2.8c0,0,0,0.1,0,0.1c0,0-0.1,0.1-0.2,0.1c-0.2,0.1-0.4,0.3-0.7,0.5c-0.6,0.4-1.4,1-2.3,1.8
	c-1.8,1.5-4.1,3.7-6.1,6.4c-0.5,0.7-0.9,1.4-1.3,2.1c-0.4,0.7-0.8,1.5-1.1,2.2c-0.1,0.4-0.3,0.8-0.4,1.1c-0.1,0.4-0.2,0.8-0.3,1.1
	c-0.2,0.7-0.3,1.5-0.4,2.2c0,0.3,0,0.7-0.1,1c0,0.3,0,2.1,0,2.1s0,0.1,0,0.3c0,0.2,0,0.5,0.1,0.9c0.1,0.4,0.1,0.8,0.2,1.3
	c0.1,0.5,0.2,1,0.4,1.6c0.2,0.6,0.3,1.2,0.5,1.8c0.2,0.6,0.5,1.3,0.7,2c0.3,0.7,0.6,1.3,0.9,2c0.3,0.7,0.7,1.3,1,2
	c0.4,0.6,0.7,1.3,1.2,1.9c0.4,0.6,0.8,1.2,1.2,1.8c0.2,0.3,0.5,0.5,0.7,0.8c0.3,0.2,0.5,0.5,0.7,0.7c0.5,0.4,1,0.8,1.6,1.1
	c0.5,0.3,1.1,0.6,1.5,0.8c0.5,0.2,1,0.4,1.4,0.5c0.4,0.1,0.7,0.2,1,0.2c0.2,0,0.4,0.1,0.4,0.1s0-0.1,0-0.4c0-0.2,0.1-0.6,0.1-1
	c0-0.4,0-0.9,0-1.4c0-0.5-0.1-1.1-0.2-1.7c-0.1-0.6-0.3-1.2-0.5-1.9c-0.1-0.3-0.2-0.6-0.3-1c-0.1-0.3-0.3-0.6-0.4-1
	c-0.3-0.6-0.7-1.3-1-1.9c-0.4-0.7-0.8-1.3-1.1-1.9c-0.4-0.6-0.8-1.3-1.2-1.9c0,0-0.1-0.1-0.1-0.1c-0.1-0.4-0.1-0.8-0.1-1.2
	c0-0.9,0.4-2,0.9-3c0.6-1,1.3-2,2.1-3c1.7-1.9,3.7-3.4,5.2-4.5c1.3-0.9,2.3-1.5,2.4-1.9l6.3,24.8l6.3-24.8c0.1,0.1,0.1,0.1,0.1,0.1
	s1,0.6,2.4,1.5c1.7,1,3.8,2.5,5.7,4.3c0.9,0.9,1.8,1.9,2.4,2.8c0.3,0.5,0.6,1,0.8,1.5c0.2,0.5,0.3,0.9,0.4,1.4
	c0.1,0.4,0.1,0.8,0,1.2c0,0.3-0.1,0.6-0.2,0.8c0,0,0,0,0,0c-0.4,0.6-0.8,1.2-1.2,1.8c-0.4,0.6-0.8,1.3-1.1,1.9
	c-0.4,0.6-0.7,1.3-1,1.9c-0.1,0.3-0.3,0.7-0.4,1c-0.1,0.3-0.2,0.6-0.3,1c-0.2,0.6-0.4,1.3-0.5,1.9c-0.1,0.6-0.2,1.2-0.2,1.7
	c0,0.5-0.1,1,0,1.4c0,0.4,0,0.7,0.1,1c0,0.2,0,0.4,0,0.4s0.2,0,0.4-0.1c0.3,0,0.6-0.1,1-0.2c0.4-0.1,0.9-0.3,1.4-0.5
	c0.5-0.2,1-0.5,1.5-0.8c0.5-0.3,1-0.7,1.6-1.1c0.3-0.2,0.5-0.5,0.7-0.7c0.2-0.3,0.5-0.5,0.7-0.8c0.4-0.6,0.8-1.2,1.2-1.8
	c0.4-0.6,0.8-1.3,1.2-1.9c0.4-0.7,0.7-1.3,1-2c0.3-0.7,0.6-1.3,0.9-2c0.3-0.7,0.5-1.3,0.7-2c0.2-0.6,0.4-1.2,0.5-1.8
	c0.2-0.6,0.3-1.1,0.4-1.6c0.1-0.5,0.2-0.9,0.2-1.3c0-0.4,0.1-0.7,0.1-0.9c0-0.2,0-0.3,0-0.3s0-1.8,0-2.1
	C142.4,75.6,142.4,75.3,142.4,74.9z M106.3,71.5c-1.6,1.1-3.6,2.7-5.3,4.6c-0.9,1-1.7,2-2.2,3.1c-0.6,1.1-1,2.3-1,3.3
	c0,0,0,0.1,0,0.1c-0.1-0.2-0.2-0.3-0.3-0.5c-0.4-0.6-0.8-1.1-1.3-1.6c-0.4-0.5-0.8-1-1.2-1.4c-0.2-0.2-0.7-0.9-0.7-1.5
	c0-0.3-0.1-0.6,0-1c0-0.2,0-0.4,0-0.6c0-0.2,0.1-0.4,0.1-0.7c0.1-0.5,0.2-1,0.4-1.5c0.2-0.5,0.4-1.1,0.6-1.6
	c0.3-0.5,0.6-1.1,0.9-1.6c0.3-0.5,0.8-1.1,1.2-1.6c1.7-2.1,3.8-3.9,5.5-5.2c0.8-0.6,1.6-1.1,2.1-1.4c0.3,0.7,0.7,1.3,1,1.9
	c0.3,0.6,0.6,1.2,0.9,1.8c0.3,0.5,0.6,1,0.9,1.5c0.6,0.9,1.3,1.9,1.3,2.1S107.7,70.5,106.3,71.5z M138.2,77.7
	c-0.1,0.5-0.5,1.2-0.7,1.5c-0.4,0.4-0.8,0.9-1.2,1.4c-0.4,0.5-0.8,1-1.3,1.6c-0.1,0.2-0.2,0.3-0.4,0.5c0-0.3,0-0.6-0.1-0.9
	c-0.1-0.5-0.2-1-0.5-1.6c-0.2-0.5-0.5-1.1-0.9-1.6c-0.7-1-1.6-2-2.6-3c-2-1.8-4.2-3.3-5.9-4.4c-1.2-0.7-2.2-1.3-2.6-1.5c0,0,0,0,0,0
	c0.4-0.4,0.9-1.1,1.6-1.9c0.3-0.4,0.7-0.9,1.1-1.4c0.4-0.5,0.8-1.1,1.1-1.7c0.5-0.7,1-1.5,1.4-2.4c0.1,0,0.1,0.1,0.2,0.1
	c0.5,0.3,1.2,0.8,2.1,1.4c1.7,1.2,3.8,3,5.5,5.2c0.4,0.5,0.8,1.1,1.2,1.6c0.4,0.5,0.7,1.1,0.9,1.6c0.3,0.5,0.5,1.1,0.6,1.6
	c0.2,0.5,0.3,1,0.4,1.5c0,0.2,0.1,0.5,0.1,0.7c0,0.2,0,0.4,0,0.6C138.2,77.1,138.2,77.5,138.2,77.7z"/>
</svg>